<svg xmlns="http://www.w3.org/2000/svg" viewBox="0 0 24 24" fill="none" stroke="currentColor" stroke-width="2" stroke-linecap="round" stroke-linejoin="round" stroke-miterlimit="10" width="24" height="24"><path d="M6,10H5a2,2,0,0,0-2,2v1H4a2,2,0,0,1,2,2v.75A6.17,6.17,0,0,0,11.82,22,6,6,0,0,0,18,16V15a2,2,0,0,1,2-2h1V12a2,2,0,0,0-2-2h0a1,1,0,0,1-1-1V7a2,2,0,0,0-2-2h0a2,2,0,0,0-2,2" fill="none" stroke="#000" stroke-linecap="round" stroke-miterlimit="10" stroke-width="2"/><path d="M6,10V7A2,2,0,0,1,8,5H8a2,2,0,0,1,2,2" fill="none" stroke="#000" stroke-linecap="round" stroke-miterlimit="10" stroke-width="2"/><polyline points="14 10 14 7 14 11" fill="none" stroke="#000" stroke-linecap="round" stroke-miterlimit="10" stroke-width="2"/><path d="M10,11V4a2,2,0,0,1,2-2h0a2,2,0,0,1,2,2V7" fill="none" stroke="#000" stroke-linecap="round" stroke-miterlimit="10" stroke-width="2"/></svg>