<svg xmlns="http://www.w3.org/2000/svg" viewBox="0 0 24 24" stroke-width="2" stroke-linecap="round" stroke-linejoin="round" width="24" height="24" fill="none" stroke="currentColor"><path d="M6 10H5a2 2 0 0 0-2 2v1h1a2 2 0 0 1 2 2v.75A6.17 6.17 0 0 0 11.82 22 6 6 0 0 0 18 16v-1a2 2 0 0 1 2-2h1v-1a2 2 0 0 0-2-2h0a1 1 0 0 1-1-1V7a2 2 0 0 0-2-2h0a2 2 0 0 0-2 2" stroke-linecap="round" stroke-miterlimit="10" stroke-width="2"/><path d="M6 10V7a2 2 0 0 1 2-2h0a2 2 0 0 1 2 2m4 3V7v4m-4 0V4a2 2 0 0 1 2-2h0a2 2 0 0 1 2 2v3" stroke-linecap="round" stroke-miterlimit="10" stroke-width="2"/></svg>