<svg xmlns="http://www.w3.org/2000/svg" xmlns:xlink="http://www.w3.org/1999/xlink" viewBox="0 0 99 100" stroke-width="2" stroke-linecap="round" stroke-linejoin="round" width="24" height="24" fill="none" stroke="currentColor"><use width="48" height="48" transform="translate(25 0) scale(0.5)" xlink:href="#e7a8d4f6-8f88-463a-bea8-0913fdc176b0"/><use width="48" height="48" transform="translate(75 0) scale(0.5)" xlink:href="#e7a8d4f6-8f88-463a-bea8-0913fdc176b0"/><use width="48" height="48" transform="translate(50 0) scale(0.5)" xlink:href="#e7a8d4f6-8f88-463a-bea8-0913fdc176b0"/><use width="48" height="48" transform="translate(75 26) scale(0.5)" xlink:href="#e7a8d4f6-8f88-463a-bea8-0913fdc176b0"/><use width="48" height="48" transform="translate(50 26) scale(0.5)" xlink:href="#e7a8d4f6-8f88-463a-bea8-0913fdc176b0"/><use width="48" height="48" transform="translate(25 26) scale(0.5)" xlink:href="#e7a8d4f6-8f88-463a-bea8-0913fdc176b0"/><use width="48" height="48" transform="translate(75 51) scale(0.5)" xlink:href="#e7a8d4f6-8f88-463a-bea8-0913fdc176b0"/><use width="48" height="48" transform="translate(50 51) scale(0.5)" xlink:href="#e7a8d4f6-8f88-463a-bea8-0913fdc176b0"/><use width="48" height="48" transform="translate(25 51) scale(0.5)" xlink:href="#e7a8d4f6-8f88-463a-bea8-0913fdc176b0"/><use width="48" height="48" transform="translate(25 76) scale(0.5)" xlink:href="#e7a8d4f6-8f88-463a-bea8-0913fdc176b0"/><use width="48" height="48" transform="translate(0 76) scale(0.5)" xlink:href="#e7a8d4f6-8f88-463a-bea8-0913fdc176b0"/><use width="48" height="48" transform="translate(0 51) scale(0.5)" xlink:href="#e7a8d4f6-8f88-463a-bea8-0913fdc176b0"/><use width="48" height="48" transform="translate(0 26) scale(0.5)" xlink:href="#e7a8d4f6-8f88-463a-bea8-0913fdc176b0"/><use width="48" height="48" transform="translate(0 0) scale(0.5)" xlink:href="#e7a8d4f6-8f88-463a-bea8-0913fdc176b0"/><use width="48" height="48" transform="translate(25 0) scale(0.5)" xlink:href="#a509a30e-1c21-44b4-80b5-7450a552fe72"/><use width="48" height="48" transform="translate(75 0) scale(0.5)" xlink:href="#a509a30e-1c21-44b4-80b5-7450a552fe72"/><use width="48" height="48" transform="translate(50 0) scale(0.5)" xlink:href="#a509a30e-1c21-44b4-80b5-7450a552fe72"/><use width="48" height="48" transform="translate(75 26) scale(0.5)" xlink:href="#a509a30e-1c21-44b4-80b5-7450a552fe72"/><use width="48" height="48" transform="translate(50 26) scale(0.5)" xlink:href="#a509a30e-1c21-44b4-80b5-7450a552fe72"/><use width="48" height="48" transform="translate(25 26) scale(0.5)" xlink:href="#a509a30e-1c21-44b4-80b5-7450a552fe72"/><use width="48" height="48" transform="translate(75 51) scale(0.5)" xlink:href="#a509a30e-1c21-44b4-80b5-7450a552fe72"/><use width="48" height="48" transform="translate(50 51) scale(0.5)" xlink:href="#a509a30e-1c21-44b4-80b5-7450a552fe72"/><use width="48" height="48" transform="translate(25 51) scale(0.5)" xlink:href="#a509a30e-1c21-44b4-80b5-7450a552fe72"/><use width="48" height="48" transform="translate(25 76) scale(0.5)" xlink:href="#a509a30e-1c21-44b4-80b5-7450a552fe72"/><use width="48" height="48" transform="translate(0 76) scale(0.5)" xlink:href="#a509a30e-1c21-44b4-80b5-7450a552fe72"/><use width="48" height="48" transform="translate(0 51) scale(0.5)" xlink:href="#a509a30e-1c21-44b4-80b5-7450a552fe72"/><use width="48" height="48" transform="translate(0 26) scale(0.5)" xlink:href="#a509a30e-1c21-44b4-80b5-7450a552fe72"/><use width="48" height="48" transform="translate(0 0) scale(0.5)" xlink:href="#a509a30e-1c21-44b4-80b5-7450a552fe72"/><use width="48" height="48" transform="translate(25 0) scale(0.5)" xlink:href="#fc3e545d-4a7c-4980-a742-eeab9ecda2a7"/><use width="48" height="48" transform="translate(75 0) scale(0.5)" xlink:href="#fc3e545d-4a7c-4980-a742-eeab9ecda2a7"/><use width="48" height="48" transform="translate(50 0) scale(0.5)" xlink:href="#fc3e545d-4a7c-4980-a742-eeab9ecda2a7"/><use width="48" height="48" transform="translate(75 26) scale(0.5)" xlink:href="#fc3e545d-4a7c-4980-a742-eeab9ecda2a7"/><use width="48" height="48" transform="translate(50 26) scale(0.5)" xlink:href="#fc3e545d-4a7c-4980-a742-eeab9ecda2a7"/><use width="48" height="48" transform="translate(25 26) scale(0.5)" xlink:href="#fc3e545d-4a7c-4980-a742-eeab9ecda2a7"/><use width="48" height="48" transform="translate(75 51) scale(0.5)" xlink:href="#fc3e545d-4a7c-4980-a742-eeab9ecda2a7"/><use width="48" height="48" transform="translate(50 51) scale(0.5)" xlink:href="#fc3e545d-4a7c-4980-a742-eeab9ecda2a7"/><use width="48" height="48" transform="translate(25 51) scale(0.5)" xlink:href="#fc3e545d-4a7c-4980-a742-eeab9ecda2a7"/><use width="48" height="48" transform="translate(25 76) scale(0.5)" xlink:href="#fc3e545d-4a7c-4980-a742-eeab9ecda2a7"/><use width="48" height="48" transform="translate(0 76) scale(0.5)" xlink:href="#fc3e545d-4a7c-4980-a742-eeab9ecda2a7"/><use width="48" height="48" transform="translate(0 51) scale(0.5)" xlink:href="#fc3e545d-4a7c-4980-a742-eeab9ecda2a7"/><use width="48" height="48" transform="translate(0 26) scale(0.5)" xlink:href="#fc3e545d-4a7c-4980-a742-eeab9ecda2a7"/><use width="48" height="48" transform="translate(0 0) scale(0.5)" xlink:href="#fc3e545d-4a7c-4980-a742-eeab9ecda2a7"/><path d="M12 28" stroke-miterlimit="10" stroke-width="2"/><path d="M115 21" stroke-linecap="round" stroke-miterlimit="10" stroke-width="2"/><path d="M20 13" stroke-miterlimit="10" stroke-width="2"/><path d="M6 10H5a2 2 0 0 0-2 2v1h1a2 2 0 0 1 2 2v.75A6.17 6.17 0 0 0 11.82 22 6 6 0 0 0 18 16v-1a2 2 0 0 1 2-2h1v-1a2 2 0 0 0-2-2h0a1 1 0 0 1-1-1V7a2 2 0 0 0-2-2h0a2 2 0 0 0-2 2" stroke-linecap="round" stroke-miterlimit="10" stroke-width="2"/><path d="M6 10V7a2 2 0 0 1 2-2h0a2 2 0 0 1 2 2m4 3V7v4m-4 0V4a2 2 0 0 1 2-2h0a2 2 0 0 1 2 2v3" stroke-linecap="round" stroke-miterlimit="10" stroke-width="2"/><path stroke-linecap="round" stroke-linejoin="round" stroke-width="2" d="M87 38h9l-3-4m-8 4h11l-3 4"/><path d="M89.59 34c-.44-3.46-5.59-5-5.59-5h0s-9.92 3-3.41 9.91a.09.09 0 0 1 0 .15A3.69 3.69 0 0 0 79 42v5m10 0v-5m-22 5v-5a3.69 3.69 0 0 0-1.58-2.94.09.09 0 0 1 0-.15C71.92 32 62 29 62 29h0s-9.92 3-3.41 9.91a.09.09 0 0 1 0 .15A3.69 3.69 0 0 0 57 42v5m-25 0v-4.21a10.1 10.1 0 0 1 1.43-5.19h0a.11.11 0 0 0 0-.12 5 5 0 1 1 7.18 0 .11.11 0 0 0 0 .12h0A10.1 10.1 0 0 1 42 42.79V47m-28-5v5M4 47v-4.2a10.15 10.15 0 0 1 1.43-5.2h0a.09.09 0 0 0 0-.11 5 5 0 0 1 .91-7.71A5 5 0 0 1 14 34" stroke-linecap="round" stroke-miterlimit="10" stroke-width="2"/><path stroke-linecap="round" stroke-linejoin="round" stroke-width="2" d="M12 38.01h9l-3-4m-8 4h11l-3 4"/><path d="M37 3v18m7-18a7 7 0 0 1-14 0m14 18a7 7 0 0 0-14 0" stroke-linecap="round" stroke-miterlimit="10" stroke-width="2"/><path d="M66.27 19h-8.54a2.11 2.11 0 0 1-1.95-1.08l-2.65-5.72a1.34 1.34 0 0 1 .25-1.5C53.89 10.12 58.33 9 62 9s8.09 1.1 8.62 1.7a1.34 1.34 0 0 1 .25 1.5l-2.65 5.72A2.11 2.11 0 0 1 66.27 19M59 9V7.65a3 3 0 0 1 6 0V9" stroke-miterlimit="10" stroke-width="2"/><path d="M85 7.9c-2.89-.31-5-1.27-5-2.4C80 4.12 83.13 3 87 3s7 1.12 7 2.5c0 .47-.37.91-1 1.29a6 6 0 0 1-1 .46" stroke-linecap="round" stroke-miterlimit="10" stroke-width="2"/><path d="m80 5.5-1 13.61c0 1 3.58 1.89 8 1.89s8-.85 8-1.89L94 5.5" stroke-miterlimit="10" stroke-width="2"/><path d="M87 6s4 2 4 10" stroke-linecap="round" stroke-miterlimit="10" stroke-width="2"/><rect x="28" y="54" width="18" height="18" rx="2" stroke-miterlimit="10" stroke-width="2"/><path d="M33.67 72v-2.81a6.73 6.73 0 0 1 .95-3.46h0a.08.08 0 0 0 0-.08 3.33 3.33 0 1 1 4.78 0 .08.08 0 0 0 0 .08h0a6.73 6.73 0 0 1 .95 3.46V72" stroke-linecap="round" stroke-miterlimit="10" stroke-width="2"/><rect x="3" y="54" width="18" height="18" rx="2" stroke-miterlimit="10" stroke-width="2"/><path d="M15.33 72v-3.33a2.44 2.44 0 0 0-1.05-2 .06.06 0 0 1 0-.1C18.61 62 12 60 12 60h0s-6.61 2-2.27 6.61a.06.06 0 0 1 0 .1 2.44 2.44 0 0 0-1.05 2V72" stroke-linecap="round" stroke-miterlimit="10" stroke-width="2"/><path stroke-linejoin="round" stroke-width="2" d="M55.64 60.36v-3.72h3.72L62 54l2.64 2.64h3.72v3.72L71 63l-2.64 2.64v3.72h-3.72L62 72l-2.64-2.64h-3.72v-3.72L53 63z"/></svg>