<svg xmlns="http://www.w3.org/2000/svg" xmlns:xlink="http://www.w3.org/1999/xlink" width="99" height="100" viewBox="0 0 99 100"><defs><clipPath id="aef37fda-ccc2-420d-84b7-7ca138be4614"><rect width="48" height="48" fill="none"/></clipPath><symbol id="e7a8d4f6-8f88-463a-bea8-0913fdc176b0" data-name="material_system_icon_border" viewBox="0 0 48 48"><rect width="48" height="48" fill="none"/></symbol><symbol id="a509a30e-1c21-44b4-80b5-7450a552fe72" data-name="material_system_icon_grid" viewBox="0 0 48 48"><g clip-path="url(#aef37fda-ccc2-420d-84b7-7ca138be4614)"><line x1="2" y1="48" x2="2" fill="none" stroke="#000" stroke-miterlimit="10" stroke-width="0.25"/><line x1="4" y1="48" x2="4" fill="none" stroke="#000" stroke-miterlimit="10" stroke-width="0.25"/><line x1="6" y1="48" x2="6" fill="none" stroke="#000" stroke-miterlimit="10" stroke-width="0.25"/><line x1="8" y1="48" x2="8" fill="none" stroke="#000" stroke-miterlimit="10" stroke-width="0.25"/><line x1="10" y1="48" x2="10" fill="none" stroke="#000" stroke-miterlimit="10" stroke-width="0.25"/><line x1="12" y1="48" x2="12" fill="none" stroke="#000" stroke-miterlimit="10" stroke-width="0.25"/><line x1="14" y1="48" x2="14" fill="none" stroke="#000" stroke-miterlimit="10" stroke-width="0.25"/><line x1="16" y1="48" x2="16" fill="none" stroke="#000" stroke-miterlimit="10" stroke-width="0.25"/><line x1="18" y1="48" x2="18" fill="none" stroke="#000" stroke-miterlimit="10" stroke-width="0.25"/><line x1="20" y1="48" x2="20" fill="none" stroke="#000" stroke-miterlimit="10" stroke-width="0.25"/><line x1="22" y1="48" x2="22" fill="none" stroke="#000" stroke-miterlimit="10" stroke-width="0.25"/><line x1="24" y1="48" x2="24" fill="none" stroke="#000" stroke-miterlimit="10" stroke-width="0.25"/><line x1="26" y1="48" x2="26" fill="none" stroke="#000" stroke-miterlimit="10" stroke-width="0.25"/><line x1="28" y1="48" x2="28" fill="none" stroke="#000" stroke-miterlimit="10" stroke-width="0.25"/><line x1="30" y1="48" x2="30" fill="none" stroke="#000" stroke-miterlimit="10" stroke-width="0.25"/><line x1="32" y1="48" x2="32" fill="none" stroke="#000" stroke-miterlimit="10" stroke-width="0.25"/><line x1="34" y1="48" x2="34" fill="none" stroke="#000" stroke-miterlimit="10" stroke-width="0.25"/><line x1="36" y1="48" x2="36" fill="none" stroke="#000" stroke-miterlimit="10" stroke-width="0.25"/><line x1="38" y1="48" x2="38" fill="none" stroke="#000" stroke-miterlimit="10" stroke-width="0.25"/><line x1="40" y1="48" x2="40" fill="none" stroke="#000" stroke-miterlimit="10" stroke-width="0.25"/><line x1="42" y1="48" x2="42" fill="none" stroke="#000" stroke-miterlimit="10" stroke-width="0.25"/><line x1="44" y1="48" x2="44" fill="none" stroke="#000" stroke-miterlimit="10" stroke-width="0.25"/><line x1="46" y1="48" x2="46" fill="none" stroke="#000" stroke-miterlimit="10" stroke-width="0.25"/><line y1="2" x2="48" y2="2" fill="none" stroke="#000" stroke-miterlimit="10" stroke-width="0.25"/><line y1="4" x2="48" y2="4" fill="none" stroke="#000" stroke-miterlimit="10" stroke-width="0.25"/><line y1="6" x2="48" y2="6" fill="none" stroke="#000" stroke-miterlimit="10" stroke-width="0.25"/><line y1="8" x2="48" y2="8" fill="none" stroke="#000" stroke-miterlimit="10" stroke-width="0.25"/><line y1="10" x2="48" y2="10" fill="none" stroke="#000" stroke-miterlimit="10" stroke-width="0.25"/><line y1="12" x2="48" y2="12" fill="none" stroke="#000" stroke-miterlimit="10" stroke-width="0.25"/><line y1="14" x2="48" y2="14" fill="none" stroke="#000" stroke-miterlimit="10" stroke-width="0.25"/><line y1="16" x2="48" y2="16" fill="none" stroke="#000" stroke-miterlimit="10" stroke-width="0.25"/><line y1="18" x2="48" y2="18" fill="none" stroke="#000" stroke-miterlimit="10" stroke-width="0.25"/><line y1="20" x2="48" y2="20" fill="none" stroke="#000" stroke-miterlimit="10" stroke-width="0.25"/><line y1="22" x2="48" y2="22" fill="none" stroke="#000" stroke-miterlimit="10" stroke-width="0.25"/><line y1="24" x2="48" y2="24" fill="none" stroke="#000" stroke-miterlimit="10" stroke-width="0.25"/><line y1="26" x2="48" y2="26" fill="none" stroke="#000" stroke-miterlimit="10" stroke-width="0.25"/><line y1="28" x2="48" y2="28" fill="none" stroke="#000" stroke-miterlimit="10" stroke-width="0.25"/><line y1="30" x2="48" y2="30" fill="none" stroke="#000" stroke-miterlimit="10" stroke-width="0.25"/><line y1="32" x2="48" y2="32" fill="none" stroke="#000" stroke-miterlimit="10" stroke-width="0.25"/><line y1="34" x2="48" y2="34" fill="none" stroke="#000" stroke-miterlimit="10" stroke-width="0.25"/><line y1="36" x2="48" y2="36" fill="none" stroke="#000" stroke-miterlimit="10" stroke-width="0.25"/><line y1="38" x2="48" y2="38" fill="none" stroke="#000" stroke-miterlimit="10" stroke-width="0.25"/><line y1="40" x2="48" y2="40" fill="none" stroke="#000" stroke-miterlimit="10" stroke-width="0.25"/><line y1="42" x2="48" y2="42" fill="none" stroke="#000" stroke-miterlimit="10" stroke-width="0.25"/><line y1="44" x2="48" y2="44" fill="none" stroke="#000" stroke-miterlimit="10" stroke-width="0.25"/><line y1="46" x2="48" y2="46" fill="none" stroke="#000" stroke-miterlimit="10" stroke-width="0.25"/><path d="M47.75.25v47.5H.25V.25h47.5M48,0H0V48H48V0Z"/></g></symbol><symbol id="fc3e545d-4a7c-4980-a742-eeab9ecda2a7" data-name="material_system_icon_keylines" viewBox="0 0 48 48"><g opacity="0.4"><g clip-path="url(#aef37fda-ccc2-420d-84b7-7ca138be4614)"><line x1="24" x2="24" y2="48" fill="none" stroke="#000" stroke-miterlimit="10" stroke-width="0.25"/><line x1="48" y1="24" y2="24" fill="none" stroke="#000" stroke-miterlimit="10" stroke-width="0.25"/><line x1="48" y1="16" y2="16" fill="none" stroke="#000" stroke-miterlimit="10" stroke-width="0.25"/><line x1="48" y1="32" y2="32" fill="none" stroke="#000" stroke-miterlimit="10" stroke-width="0.25"/><line x1="32" y1="48" x2="32" fill="none" stroke="#000" stroke-miterlimit="10" stroke-width="0.25"/><line x1="16" y1="48" x2="16" fill="none" stroke="#000" stroke-miterlimit="10" stroke-width="0.25"/><line x1="47.75" y1="0.25" x2="0.25" y2="47.75" fill="none" stroke="#000" stroke-miterlimit="10" stroke-width="0.25"/><line x1="0.25" y1="0.25" x2="47.75" y2="47.75" fill="none" stroke="#000" stroke-miterlimit="10" stroke-width="0.25"/><path d="M24,14A10,10,0,1,0,34,24,10,10,0,0,0,24,14Z" fill="none" stroke="#000" stroke-miterlimit="10" stroke-width="0.25"/><path d="M24,4A20,20,0,1,0,44,24,20,20,0,0,0,24,4Z" fill="none" stroke="#000" stroke-miterlimit="10" stroke-width="0.25"/><path d="M38,6H10a4,4,0,0,0-4,4V38a4,4,0,0,0,4,4H38a4,4,0,0,0,4-4V10A4,4,0,0,0,38,6Z" fill="none" stroke="#000" stroke-miterlimit="10" stroke-width="0.25"/><path d="M40,8H8a4,4,0,0,0-4,4V36a4,4,0,0,0,4,4H40a4,4,0,0,0,4-4V12A4,4,0,0,0,40,8Z" fill="none" stroke="#000" stroke-miterlimit="10" stroke-width="0.25"/><path d="M40,40V8a4,4,0,0,0-4-4H12A4,4,0,0,0,8,8V40a4,4,0,0,0,4,4H36A4,4,0,0,0,40,40Z" fill="none" stroke="#000" stroke-miterlimit="10" stroke-width="0.25"/><path d="M47.75.25v47.5H.25V.25h47.5M48,0H0V48H48V0Z"/></g></g></symbol></defs><g id="b654025e-8778-4718-81cb-a487575f1736" data-name="border"><use width="48" height="48" transform="translate(25 0) scale(0.5)" xlink:href="#e7a8d4f6-8f88-463a-bea8-0913fdc176b0"/><use width="48" height="48" transform="translate(75 0) scale(0.5)" xlink:href="#e7a8d4f6-8f88-463a-bea8-0913fdc176b0"/><use width="48" height="48" transform="translate(50 0) scale(0.5)" xlink:href="#e7a8d4f6-8f88-463a-bea8-0913fdc176b0"/><use width="48" height="48" transform="translate(75 26) scale(0.5)" xlink:href="#e7a8d4f6-8f88-463a-bea8-0913fdc176b0"/><use width="48" height="48" transform="translate(50 26) scale(0.5)" xlink:href="#e7a8d4f6-8f88-463a-bea8-0913fdc176b0"/><use width="48" height="48" transform="translate(25 26) scale(0.5)" xlink:href="#e7a8d4f6-8f88-463a-bea8-0913fdc176b0"/><use width="48" height="48" transform="translate(75 51) scale(0.5)" xlink:href="#e7a8d4f6-8f88-463a-bea8-0913fdc176b0"/><use width="48" height="48" transform="translate(50 51) scale(0.5)" xlink:href="#e7a8d4f6-8f88-463a-bea8-0913fdc176b0"/><use width="48" height="48" transform="translate(25 51) scale(0.5)" xlink:href="#e7a8d4f6-8f88-463a-bea8-0913fdc176b0"/><use width="48" height="48" transform="translate(25 76) scale(0.5)" xlink:href="#e7a8d4f6-8f88-463a-bea8-0913fdc176b0"/><use width="48" height="48" transform="translate(0 76) scale(0.5)" xlink:href="#e7a8d4f6-8f88-463a-bea8-0913fdc176b0"/><use width="48" height="48" transform="translate(0 51) scale(0.5)" xlink:href="#e7a8d4f6-8f88-463a-bea8-0913fdc176b0"/><use width="48" height="48" transform="translate(0 26) scale(0.5)" xlink:href="#e7a8d4f6-8f88-463a-bea8-0913fdc176b0"/><use width="48" height="48" transform="translate(0 0) scale(0.5)" xlink:href="#e7a8d4f6-8f88-463a-bea8-0913fdc176b0"/></g><g id="fa7a812c-72ee-4964-ba01-344bb5757c21" data-name="grid"><use width="48" height="48" transform="translate(25 0) scale(0.5)" xlink:href="#a509a30e-1c21-44b4-80b5-7450a552fe72"/><use width="48" height="48" transform="translate(75 0) scale(0.5)" xlink:href="#a509a30e-1c21-44b4-80b5-7450a552fe72"/><use width="48" height="48" transform="translate(50 0) scale(0.5)" xlink:href="#a509a30e-1c21-44b4-80b5-7450a552fe72"/><use width="48" height="48" transform="translate(75 26) scale(0.5)" xlink:href="#a509a30e-1c21-44b4-80b5-7450a552fe72"/><use width="48" height="48" transform="translate(50 26) scale(0.5)" xlink:href="#a509a30e-1c21-44b4-80b5-7450a552fe72"/><use width="48" height="48" transform="translate(25 26) scale(0.5)" xlink:href="#a509a30e-1c21-44b4-80b5-7450a552fe72"/><use width="48" height="48" transform="translate(75 51) scale(0.5)" xlink:href="#a509a30e-1c21-44b4-80b5-7450a552fe72"/><use width="48" height="48" transform="translate(50 51) scale(0.5)" xlink:href="#a509a30e-1c21-44b4-80b5-7450a552fe72"/><use width="48" height="48" transform="translate(25 51) scale(0.5)" xlink:href="#a509a30e-1c21-44b4-80b5-7450a552fe72"/><use width="48" height="48" transform="translate(25 76) scale(0.5)" xlink:href="#a509a30e-1c21-44b4-80b5-7450a552fe72"/><use width="48" height="48" transform="translate(0 76) scale(0.5)" xlink:href="#a509a30e-1c21-44b4-80b5-7450a552fe72"/><use width="48" height="48" transform="translate(0 51) scale(0.5)" xlink:href="#a509a30e-1c21-44b4-80b5-7450a552fe72"/><use width="48" height="48" transform="translate(0 26) scale(0.5)" xlink:href="#a509a30e-1c21-44b4-80b5-7450a552fe72"/><use width="48" height="48" transform="translate(0 0) scale(0.5)" xlink:href="#a509a30e-1c21-44b4-80b5-7450a552fe72"/></g><g id="a23ebf55-70eb-4478-beb8-890745e0710b" data-name="keylines"><use width="48" height="48" transform="translate(25 0) scale(0.5)" xlink:href="#fc3e545d-4a7c-4980-a742-eeab9ecda2a7"/><use width="48" height="48" transform="translate(75 0) scale(0.5)" xlink:href="#fc3e545d-4a7c-4980-a742-eeab9ecda2a7"/><use width="48" height="48" transform="translate(50 0) scale(0.5)" xlink:href="#fc3e545d-4a7c-4980-a742-eeab9ecda2a7"/><use width="48" height="48" transform="translate(75 26) scale(0.5)" xlink:href="#fc3e545d-4a7c-4980-a742-eeab9ecda2a7"/><use width="48" height="48" transform="translate(50 26) scale(0.5)" xlink:href="#fc3e545d-4a7c-4980-a742-eeab9ecda2a7"/><use width="48" height="48" transform="translate(25 26) scale(0.5)" xlink:href="#fc3e545d-4a7c-4980-a742-eeab9ecda2a7"/><use width="48" height="48" transform="translate(75 51) scale(0.5)" xlink:href="#fc3e545d-4a7c-4980-a742-eeab9ecda2a7"/><use width="48" height="48" transform="translate(50 51) scale(0.5)" xlink:href="#fc3e545d-4a7c-4980-a742-eeab9ecda2a7"/><use width="48" height="48" transform="translate(25 51) scale(0.5)" xlink:href="#fc3e545d-4a7c-4980-a742-eeab9ecda2a7"/><use width="48" height="48" transform="translate(25 76) scale(0.5)" xlink:href="#fc3e545d-4a7c-4980-a742-eeab9ecda2a7"/><use width="48" height="48" transform="translate(0 76) scale(0.5)" xlink:href="#fc3e545d-4a7c-4980-a742-eeab9ecda2a7"/><use width="48" height="48" transform="translate(0 51) scale(0.5)" xlink:href="#fc3e545d-4a7c-4980-a742-eeab9ecda2a7"/><use width="48" height="48" transform="translate(0 26) scale(0.5)" xlink:href="#fc3e545d-4a7c-4980-a742-eeab9ecda2a7"/><use width="48" height="48" transform="translate(0 0) scale(0.5)" xlink:href="#fc3e545d-4a7c-4980-a742-eeab9ecda2a7"/></g><g id="f47b9f5f-d858-422f-96be-648d8cc5f1ee" data-name="khemissa"><path d="M12,28" transform="translate(0 0)" fill="none" stroke="#000" stroke-miterlimit="10" stroke-width="2"/><path d="M192-3" transform="translate(0 0)" fill="none" stroke="#000" stroke-linecap="round" stroke-miterlimit="10" stroke-width="2"/><path d="M115,21" transform="translate(0 0)" fill="none" stroke="#000" stroke-linecap="round" stroke-miterlimit="10" stroke-width="2"/><path d="M12,53" transform="translate(0 0)" fill="none" stroke="#000" stroke-miterlimit="10" stroke-width="2"/><path d="M37,53" transform="translate(0 0)" fill="none" stroke="#000" stroke-miterlimit="10" stroke-width="2"/><path d="M37,53" transform="translate(0 0)" fill="none" stroke="#000" stroke-miterlimit="10" stroke-width="2"/><path d="M20,13" transform="translate(0 0)" fill="none" stroke="#000" stroke-miterlimit="10" stroke-width="2"/><path d="M6,10H5a2,2,0,0,0-2,2v1H4a2,2,0,0,1,2,2v.75A6.17,6.17,0,0,0,11.82,22,6,6,0,0,0,18,16V15a2,2,0,0,1,2-2h1V12a2,2,0,0,0-2-2h0a1,1,0,0,1-1-1V7a2,2,0,0,0-2-2h0a2,2,0,0,0-2,2" transform="translate(0 0)" fill="none" stroke="#000" stroke-linecap="round" stroke-miterlimit="10" stroke-width="2"/><path d="M6,10V7A2,2,0,0,1,8,5H8a2,2,0,0,1,2,2" transform="translate(0 0)" fill="none" stroke="#000" stroke-linecap="round" stroke-miterlimit="10" stroke-width="2"/><polyline points="14 10 14 7 14 11" fill="none" stroke="#000" stroke-linecap="round" stroke-miterlimit="10" stroke-width="2"/><path d="M10,11V4a2,2,0,0,1,2-2h0a2,2,0,0,1,2,2V7" transform="translate(0 0)" fill="none" stroke="#000" stroke-linecap="round" stroke-miterlimit="10" stroke-width="2"/></g><g id="a687c832-4e12-4fd7-bcff-789eb27949f0" data-name="riad-door-logout"><polyline points="87 38 96 38 93 34" fill="none" stroke="#000" stroke-linecap="round" stroke-linejoin="round" stroke-width="2"/><polyline points="85 38 96 38 93 42" fill="none" stroke="#000" stroke-linecap="round" stroke-linejoin="round" stroke-width="2"/><path d="M89.59,34C89.15,30.54,84,29,84,29h0s-9.92,3-3.41,9.91a.09.09,0,0,1,0,.15A3.69,3.69,0,0,0,79,42v5" transform="translate(0 0)" fill="none" stroke="#000" stroke-linecap="round" stroke-miterlimit="10" stroke-width="2"/><path d="M90.59,34" transform="translate(0 0)" fill="none" stroke="#000" stroke-linecap="round" stroke-miterlimit="10" stroke-width="2"/><line x1="89" y1="47" x2="89" y2="42" fill="none" stroke="#000" stroke-linecap="round" stroke-miterlimit="10" stroke-width="2"/></g><g id="a26b6a9b-28c9-4b62-a844-c86be75ef733" data-name="riad-door"><path d="M67,47V42a3.69,3.69,0,0,0-1.58-2.94.09.09,0,0,1,0-.15C71.92,32,62,29,62,29h0s-9.92,3-3.41,9.91a.09.09,0,0,1,0,.15A3.69,3.69,0,0,0,57,42v5" transform="translate(0 0)" fill="none" stroke="#000" stroke-linecap="round" stroke-miterlimit="10" stroke-width="2"/></g><g id="fc9afe42-de63-4054-a2ab-ff9c485406f0" data-name="door"><path d="M32,47V42.79a10.11,10.11,0,0,1,1.43-5.19h0a.11.11,0,0,0,0-.12,5,5,0,1,1,7.18,0,.11.11,0,0,0,0,.12h0A10.11,10.11,0,0,1,42,42.79V47" transform="translate(0 0)" fill="none" stroke="#000" stroke-linecap="round" stroke-miterlimit="10" stroke-width="2"/></g><g id="e3871e04-61f4-4a8d-8b2e-62ca9eb22ace" data-name="door_logout"><path d="M14,42c0,.26,0,.52,0,.79V47" transform="translate(0 0)" fill="none" stroke="#000" stroke-linecap="round" stroke-miterlimit="10" stroke-width="2"/><path d="M4,47V42.8a10.15,10.15,0,0,1,1.43-5.2h0a.09.09,0,0,0,0-.11,5,5,0,0,1,.91-7.71A5,5,0,0,1,14,34" transform="translate(0 0)" fill="none" stroke="#000" stroke-linecap="round" stroke-miterlimit="10" stroke-width="2"/><polyline points="12 38.01 21 38.01 18 34.01" fill="none" stroke="#000" stroke-linecap="round" stroke-linejoin="round" stroke-width="2"/><polyline points="10 38.01 21 38.01 18 42.01" fill="none" stroke="#000" stroke-linecap="round" stroke-linejoin="round" stroke-width="2"/><path d="M14,42" transform="translate(0 0)" fill="none" stroke="#000" stroke-linecap="round" stroke-miterlimit="10" stroke-width="2"/><path d="M14,34" transform="translate(0 0)" fill="none" stroke="#000" stroke-linecap="round" stroke-miterlimit="10" stroke-width="2"/></g><g id="b0de4a2e-e0e6-4022-a883-881499604f52" data-name="tifinagh"><line x1="37" y1="3" x2="37" y2="21" fill="none" stroke="#000" stroke-linecap="round" stroke-miterlimit="10" stroke-width="2"/><path d="M44,3A7,7,0,0,1,30,3" transform="translate(0 0)" fill="none" stroke="#000" stroke-linecap="round" stroke-miterlimit="10" stroke-width="2"/><path d="M44,21a7,7,0,0,0-14,0" transform="translate(0 0)" fill="none" stroke="#000" stroke-linecap="round" stroke-miterlimit="10" stroke-width="2"/></g><g id="b96d8983-1df2-45b2-b098-2d2d556d5ecc" data-name="kouffa"><path d="M66.27,19H57.73a2.11,2.11,0,0,1-1.95-1.08L53.13,12.2a1.34,1.34,0,0,1,.25-1.5C53.89,10.12,58.33,9,62,9s8.09,1.1,8.62,1.7a1.34,1.34,0,0,1,.25,1.5l-2.65,5.72A2.11,2.11,0,0,1,66.27,19Z" transform="translate(0 0)" fill="none" stroke="#000" stroke-miterlimit="10" stroke-width="2"/><path d="M59,9V7.65a3,3,0,0,1,6,0V9" transform="translate(0 0)" fill="none" stroke="#000" stroke-miterlimit="10" stroke-width="2"/></g><g id="fe13a360-ad92-4949-b207-71b4a20b0709" data-name="tarbouche"><path d="M85,7.9c-2.89-.31-5-1.27-5-2.4C80,4.12,83.13,3,87,3s7,1.12,7,2.5c0,.47-.37.91-1,1.29a5.85,5.85,0,0,1-1,.46" transform="translate(0 0)" fill="none" stroke="#000" stroke-linecap="round" stroke-miterlimit="10" stroke-width="2"/><path d="M80,5.5,79,19.11c0,1,3.58,1.89,8,1.89s8-.85,8-1.89L94,5.5" transform="translate(0 0)" fill="none" stroke="#000" stroke-miterlimit="10" stroke-width="2"/><path d="M87,6s4,2,4,10" transform="translate(0 0)" fill="none" stroke="#000" stroke-linecap="round" stroke-miterlimit="10" stroke-width="2"/></g><g id="f6e2b6c4-2b03-492a-884b-3bcf78422f9f" data-name="home-door"><rect x="28" y="54" width="18" height="18" rx="2" fill="none" stroke="#000" stroke-miterlimit="10" stroke-width="2"/><path d="M33.67,72V69.19a6.73,6.73,0,0,1,.95-3.46h0a.08.08,0,0,0,0-.08,3.33,3.33,0,1,1,4.78,0,.08.08,0,0,0,0,.08h0a6.73,6.73,0,0,1,.95,3.46V72" transform="translate(0 0)" fill="none" stroke="#000" stroke-linecap="round" stroke-miterlimit="10" stroke-width="2"/></g><g id="fdfb5a06-e32e-4f19-aba7-b56ab89528bb" data-name="home-riad"><rect x="3" y="54" width="18" height="18" rx="2" fill="none" stroke="#000" stroke-miterlimit="10" stroke-width="2"/><path d="M15.33,72V68.67a2.44,2.44,0,0,0-1.05-2,.06.06,0,0,1,0-.1C18.61,62,12,60,12,60h0s-6.61,2-2.27,6.61a.06.06,0,0,1,0,.1,2.44,2.44,0,0,0-1.05,2V72" transform="translate(0 0)" fill="none" stroke="#000" stroke-linecap="round" stroke-miterlimit="10" stroke-width="2"/></g><g id="f9cf84e1-097f-446b-b86c-e767fe96706c" data-name="zellij"><polygon points="55.64 60.36 55.64 56.64 59.36 56.64 62 54 64.64 56.64 68.36 56.64 68.36 60.36 71 63 68.36 65.64 68.36 69.36 64.64 69.36 62 72 59.36 69.36 55.64 69.36 55.64 65.64 53 63 55.64 60.36" fill="none" stroke="#000" stroke-linejoin="round" stroke-width="2"/></g></svg>